:SAMPLES-PER-SECOND 30
:FULLY-SPECIFIED
:DEGREES
246
root  6.692777468 37.89577634 1.098980021 -155.7650146 -78.10540009 144.5880127
lowerback  13.13799953 3.242870092 2.096470118
upperback  8.075099945 3.995170116 5.279270172
thorax  0.9117439985 1.729380012 3.848409891
lowerneck  5.968860149 3.862910032 -4.46130991
upperneck  37.99940109 -1.929090023 14.0994997
head  11.55029964 -0.9710369706 5.96821022
lclavicle  0 -9.442270133e-015 7.951389973e-016
lhumerus  40.48300171 -0.2540169954 80.00559998
lradius  1.658143895e-031 -3.117595686e-031 118.0070038
lwrist  -3.531125038e-031 3.531125038e-031 58.85300064
lhand  -1.496451383e-031 -27.76390076 20.11240005
lfingers  90 7.125020027 -90
lthumb  89.89689403 5.08795885 91.16245106
rclavicle  0 -9.442270133e-015 7.951389973e-016
rhumerus  52.05020142 28.26740074 -90.44519806
rradius  -4.064145798e-032 3.507658938e-031 96.60910034
rwrist  0 1.059337512e-030 -81.70410156
rhand  -7.920061211e-032 -33.2840004 9.303460121
rfingers  -90 -7.125020027 -90
rthumb  -92.93752616 -24.25625642 -97.11982154
rfemur  -13.3817997 11.43599987 -12.0703001
rtibia  -0 0 55.93809891
rfoot  -4.566206828e-032 -14.83969975 -3.067169905
rtoes  5.373923086 19.29304026 -105.8922705
lfemur  -23.34160042 -4.038159847 -5.965529919
ltibia  -0 0 59.18489838
lfoot  4.414138152e-032 -0.5872510076 -2.135319948
ltoes  -4.250644065 -19.5611806 -102.515957
247
root  6.765289006 37.82422223 1.110084414 -154.8880005 -78.0298996 143.6459961
lowerback  13.22599983 3.15831995 1.843549967
upperback  8.17193985 3.844700098 5.325469971
thorax  0.9550700188 1.639050007 4.057630062
lowerneck  5.928619862 3.971930027 -4.535339832
upperneck  38.41220093 -1.967429996 14.32159996
head  11.74199963 -0.9876670241 6.10021019
lclavicle  0 -9.442270133e-015 7.951389973e-016
lhumerus  40.13909912 -0.4382529855 79.59529877
lradius  1.6717854e-031 -3.110301852e-031 118.2580032
lwrist  -7.062250077e-031 3.531125038e-031 58.23989868
lhand  -1.496451383e-031 -27.76390076 20.11240005
lfingers  90 7.125020027 -90
lthumb  89.89689403 5.08795885 91.16245106
rclavicle  0 -9.442270133e-015 7.951389973e-016
rhumerus  52.04150009 28.18009949 -90.10089874
rradius  -3.906155037e-032 3.509453457e-031 96.35109711
rwrist  0 -0 -82.03320313
rhand  -7.920061211e-032 -33.2840004 9.303460121
rfingers  -90 -7.125020027 -90
rthumb  -92.93752616 -24.25625642 -97.11982154
rfemur  -13.75459957 11.43690014 -12.32629967
rtibia  -0 0 58.03739929
rfoot  -4.555379543e-032 -14.31669998 -1.179290056
rtoes  5.373923086 19.29304026 -105.8922705
lfemur  -23.3798008 -4.293320179 -6.146989822
ltibia  -0 0 58.97140121
lfoot  6.621730845e-032 -0.9295330048 -2.038810015
ltoes  -4.250644065 -19.5611806 -102.515957
248
root  6.835911218 37.71289014 1.115184412 -154.3460083 -77.99019623 142.9959717
lowerback  13.28800011 3.073129892 1.878499985
upperback  8.283349991 3.723510027 5.207670212
thorax  1.05697 1.577849984 3.93046999
lowerneck  5.821790218 4.04241991 -4.316889763
upperneck  38.65269852 -1.972480059 14.39920044
head  11.87269974 -0.9544529915 6.109809875
lclavicle  0 -9.442270133e-015 7.951389973e-016
lhumerus  39.59700012 -0.9274070263 79.12830353
lradius  1.694539884e-031 -3.097963624e-031 118.6780014
lwrist  -7.062250077e-031 7.062250077e-031 57.93379974
lhand  -1.496451383e-031 -27.76390076 20.11240005
lfingers  90 7.125020027 -90
lthumb  89.89689403 5.08795885 91.16245106
rclavicle  0 -9.442270133e-015 7.951389973e-016
rhumerus  51.8927002 27.86300087 -89.90409851
rradius  -3.722472155e-032 3.51144928e-031 96.05130005
rwrist  3.531125038e-031 1.059337512e-030 -82.00710297
rhand  -7.920061211e-032 -33.2840004 9.303460121
rfingers  -90 -7.125020027 -90
rthumb  -92.93752616 -24.25625642 -97.11982154
rfemur  -14.07619953 11.38220024 -12.40880013
rtibia  -0 0 60.49720001
rfoot  -5.682817917e-032 -13.85890007 0.8882769942
rtoes  5.373923086 19.29304026 -105.8922705
lfemur  -23.36440086 -4.577310085 -6.271409988
ltibia  -0 0 58.77600098
lfoot  4.414738356e-032 -1.112419963 -2.359529972
ltoes  -4.250644065 -19.5611806 -102.515957
249
root  6.899155594 37.55689005 1.114364403 -152.75 -77.83769989 141.3339844
lowerback  13.1807003 3.036609888 1.684820056
upperback  8.373450279 3.648040056 4.994239807
thorax  1.213700056 1.538879991 3.831530094
lowerneck  5.832159996 4.12582016 -4.127289772
upperneck  38.63019943 -1.919540048 14.56610012
head  11.85599995 -0.8899149895 6.143380165
lclavicle  0 -9.442270133e-015 7.951389973e-016
lhumerus  38.79570007 -1.525740027 78.85669708
lradius  1.716018285e-031 -3.086118157e-031 119.0759964
lwrist  -3.531125038e-031 7.062250077e-031 57.33710098
lhand  -1.496451383e-031 -27.76390076 20.11240005
lfingers  90 7.125020027 -90
lthumb  89.89689403 5.08795885 91.16245106
rclavicle  0 -9.442270133e-015 7.951389973e-016
rhumerus  51.66360092 27.4265995 -89.49500275
rradius  -3.555977951e-032 3.513174383e-031 95.77970123
rwrist  0 7.062250077e-031 -81.93740082
rhand  -7.920061211e-032 -33.2840004 9.303460121
rfingers  -90 -7.125020027 -90
rthumb  -92.93752616 -24.25625642 -97.11982154
rfemur  -14.52880001 11.16129971 -12.80729961
rtibia  -0 0 63.18870163
rfoot  -4.533767498e-032 -13.20409966 2.920190096
rtoes  5.373923086 19.29304026 -105.8922705
lfemur  -23.36660004 -4.827549934 -6.64124012
ltibia  -0 0 58.56399918
lfoot  4.41460035e-032 -1.016000032 -3.085180044
ltoes  -4.250644065 -19.5611806 -102.515957
